<?xml version="1.0" encoding="utf-8"?>
<!-- Generator: Adobe Illustrator 18.0.0, SVG Export Plug-In . SVG Version: 6.00 Build 0)  -->
<!DOCTYPE svg PUBLIC "-//W3C//DTD SVG 1.1//EN" "http://www.w3.org/Graphics/SVG/1.1/DTD/svg11.dtd">
<svg version="1.1" id="Layer_1" xmlns="http://www.w3.org/2000/svg" xmlns:xlink="http://www.w3.org/1999/xlink" x="0px" y="0px"
	 width="841.9px" height="595.3px" viewBox="0 0 841.9 595.3" enable-background="new 0 0 841.9 595.3" xml:space="preserve">
<g>
	<g>
		<rect x="0" y="0" fill="#9D9FCF" width="841.9" height="595.3"/>
		<path fill="#645888" d="M0,450.2V310.6c0,0,89.1-131.9,166.1-176.9s178.5,122,178.5,122s96.6-172.4,170-186.2
			s150.4,101.3,150.4,101.3s55-57.1,106-53.1s70.8,39,70.8,39v293.4H0z"/>
		<path fill="#8F88BB" d="M841.9,362.2c-3.5,0.6-7,2.3-7,2.3s5.3-15.5-3.2-18.8c-8.5-3.4-20.2,8.2-20.2,8.2s-4.3-17.1-17.1-21.4
			c-12.8-4.3-23.4,13.2-23.4,13.2s-11.2-18.5-22.4-16.9c-11.2,1.5-14.9,16.9-14.9,16.9s-2.7-11-11.7-7.3c-9.1,3.7-8,12.3-8,12.3
			s-12.3-21.3-33-14.4c-20.8,6.9-22.9,27.2-22.9,27.2s-12.3-11.2-24-6.2c-11.7,5-12.8,19.4-12.8,19.4s-12.8-13.2-25.6-8.9
			c-12.8,4.3-9.6,24-9.6,24s-17.6-17.6-27.2-7.4c-9.6,10.2-6.9,23.4-6.9,23.4c-19.7-9.5-14.9,9.5-14.9,9.5
			c-26.6-10.1-30.4,19.2-30.4,19.2l335.3-1.8V362.2z"/>
		<path fill="#8F88BB" d="M339.3,416.2c-5.9-1.1-9.6,1.6-9.6,1.6s4.3-29.8-8.5-38.9c-12.8-9.1-22.9-4.3-22.9-4.3s1.1-10.6-2.7-12.2
			c-3.7-1.6-11.7,2.1-11.7,2.1s5.3-15.5-3.2-18.8c-8.5-3.4-20.2,8.2-20.2,8.2s-4.3-17.1-17.1-21.4c-12.8-4.3-23.4,13.2-23.4,13.2
			s-11.2-18.5-22.4-16.9c-11.2,1.5-14.9,16.9-14.9,16.9s-2.7-11-11.7-7.3s-8,12.3-8,12.3s-12.3-21.3-33-14.4
			c-20.8,6.9-22.9,27.2-22.9,27.2s-12.3-11.2-24-6.2s-12.8,19.4-12.8,19.4s-12.8-13.2-25.6-8.9c-12.8,4.3-9.6,24-9.6,24
			s-17.6-17.6-27.2-7.4c-9.6,10.2-6.9,23.4-6.9,23.4c-0.3-0.2-0.6-0.3-0.9-0.4v28.8l344.6-1.9C344.6,434.3,345.2,417.2,339.3,416.2z
			"/>
		<path fill="#BBE6FB" d="M0,595.3V427.7c0,0,223.6-29,428.4-29s413.5,32,413.5,32v164.6H0z"/>
		<g>
			<path fill="#6C4449" d="M566.5-0.4c0,0,6.9,199.1,14.2,253.3s24,161.9,24,161.9s18.9,4.9,29,0c0,0-22.8-139.1-33.6-224.3
				c-10.8-85.2-12-190.8-12-190.8H566.5z"/>
			<path fill="#6C4449" d="M626.7,0c0,0-14.7,27.4-44,53.9v15.6c0,0,37-15.3,51-69.5H626.7z"/>
		</g>
		<ellipse fill="#9FC8DC" cx="429.1" cy="430.2" rx="223.4" ry="18.5"/>
		<ellipse fill="#9FC8DC" cx="761.7" cy="476.9" rx="64.5" ry="14.1"/>
		<ellipse fill="#9FC8DC" cx="156.3" cy="575.9" rx="71.4" ry="14.1"/>
		<path fill="#9FC8DC" d="M588.3,417c0,6.2,23,11.3,51.4,11.3c28.4,0,51.4-5,51.4-11.3c0-1.7-1.8-3.4-5-4.8
			c-20.6-2-42.6-3.9-65.6-5.6C601.7,408.2,588.3,412.3,588.3,417z"/>
		<g>
			<g>
				<polygon fill="#5A2E28" points="620,313.9 617.7,433.8 522.2,433.8 522.2,309.9 528.7,315.2 				"/>
				<g>
					<g>
						<polygon fill="#441E17" points="542.9,433.8 544.5,433.8 542.2,315 540.6,315.1 						"/>
						<polygon fill="#441E17" points="575.2,314.6 573.6,314.6 570.4,433.8 572.1,433.8 						"/>
						<polygon fill="#441E17" points="598.4,314.2 596.8,314.2 601.4,433.8 603,433.8 						"/>
					</g>
				</g>
				<polygon fill="#764741" points="227.7,309.9 230.1,433.8 522.2,433.8 522.2,309.9 373,177.1 				"/>
				<g>
					<g>
						<polygon fill="#603833" points="250.7,433.8 253.1,433.8 247.7,293.1 245.4,295 						"/>
						<polygon fill="#603833" points="284.1,262.4 281.8,264.3 285.1,433.8 287.5,433.8 						"/>
						<polygon fill="#603833" points="317.9,233.9 315.6,235.9 323.2,433.8 325.6,433.8 						"/>
						<polygon fill="#603833" points="357.4,200.7 355,202.6 355,433.8 357.4,433.8 						"/>
						<polygon fill="#603833" points="394.9,433.8 397.3,433.8 389.5,201.1 387,199.1 						"/>
						<polygon fill="#603833" points="429.1,233.6 426.7,231.7 426.7,433.8 429.1,433.8 						"/>
						<polygon fill="#603833" points="462.9,261.3 460.5,259.3 465.2,433.8 467.6,433.8 						"/>
						<polygon fill="#603833" points="500.8,292.4 498.5,290.5 498.5,433.8 500.8,433.8 						"/>
					</g>
				</g>
				<polygon opacity="0.5" fill="#441E17" points="522.4,333.2 619.7,330.8 620,313.9 528.7,315.2 522.2,309.9 				"/>
				<polygon opacity="0.5" fill="#5A2E28" points="227.7,325 373,212.3 522.4,333.2 522.2,309.9 373,177.1 227.7,306.1 				"/>
				<polygon fill="#6C9FBA" points="211.3,305.5 373,170.8 536.1,305.5 526.1,317.8 373,191.5 221.4,317.8 				"/>
				<path fill="#B2E2F5" d="M373,170.8c0,0,56,6.3,61.6,6.3s35.5-3.2,35.5-3.2l156.3,131.5l-6.3,12.3h-93.9l10-12.3L373,170.8z"/>
				<polygon fill="#6C9FBA" points="626.4,305.5 536.1,305.5 526.1,317.8 620,317.8 				"/>
			</g>
			<g>
				<g>
					<polygon fill="#A77F77" points="273.6,433.8 267.7,335.5 338.9,331.4 335.8,433.8 					"/>
					<g>
						<g>
							<polygon fill="#714142" points="285.1,433.8 286.2,433.8 282.1,334.7 281,334.7 							"/>
							<polygon fill="#714142" points="296.9,333.8 295.8,333.9 295.8,433.8 296.9,433.8 							"/>
							<polygon fill="#714142" points="308,333.2 306.9,333.3 312.5,433.8 313.6,433.8 							"/>
							<polygon fill="#714142" points="328.8,332 327.7,332.1 323.1,433.8 324.2,433.8 							"/>
						</g>
					</g>
					<polygon fill="#5A2E28" points="273.1,339.8 338.7,337.7 338.9,331.4 267.7,335.5 273.6,433.8 278.8,433.8 					"/>
				</g>
			</g>
			<g>
				<polygon opacity="0.5" fill="#5A2E28" points="363.4,333.6 365.2,397.7 472.7,397.7 474.1,332.9 				"/>
				<polygon fill="#A77F77" points="361.3,331.4 363.1,395.6 470.5,395.6 472,330.8 				"/>
				<polygon fill="#2B2B29" points="368.4,335.5 369.9,391.4 463.6,391.4 464.9,334.9 				"/>
				<polygon fill="#1E1E1C" points="371.1,338.2 464.8,337.7 464.9,334.9 368.4,335.5 369.9,391.4 372.6,391.4 				"/>
				<polygon fill="#A77F77" points="364.9,362.2 467.6,362.2 467.6,365.1 364.9,366.2 				"/>
				<polygon fill="#A77F77" points="418.2,333.2 418.2,394.2 415.3,394.2 414.2,333.2 				"/>
			</g>
			<g>
				<circle fill="#2B2B29" cx="287.4" cy="384.5" r="4.7"/>
				<path fill="#1E1E1C" d="M287.4,379.8c-0.3,0-0.5,0-0.8,0.1c1.5,0.3,2.6,1.6,2.6,3.2c0,1.8-1.5,3.2-3.2,3.2
					c-1.6,0-2.9-1.1-3.2-2.6c0,0.2-0.1,0.5-0.1,0.8c0,2.6,2.1,4.7,4.7,4.7c2.6,0,4.7-2.1,4.7-4.7S290,379.8,287.4,379.8z"/>
			</g>
			<g>
				<polygon fill="#855A54" points="507.9,251.9 507.9,200.8 541.1,200.8 538.5,272 				"/>
				<polygon fill="#4B3739" points="541.1,200.8 560,206.7 551.8,272 538.5,272 				"/>
				<polygon fill="#9D7059" points="527.3,216.6 540.5,216.6 540.1,227.8 527.3,228.2 				"/>
				<polygon fill="#855A54" points="540.5,216.6 547.4,221.3 546,229.8 540.1,227.8 				"/>
				<rect x="507.9" y="208" fill="#9D7059" width="11.1" height="8.6"/>
				<polygon fill="#9D7059" points="511.7,234.4 512.6,240.7 532.4,242.2 533,235.3 				"/>
				<polygon fill="#855A54" points="555.4,243.1 546.2,243.1 545.1,249.5 554.4,251.3 				"/>
			</g>
		</g>
		<g>
			<path fill="#6C4449" d="M747.7,0c0,0-0.4,330.8-27.4,474.8c0,0,26.8,15.3,50.1,5.9c0,0,7.3-348.8,7.3-480.7H747.7z"/>
			<g>
				<path fill="#A47469" d="M770.9,458c0-1.9,0.1-4,0.1-6.1l-45.8-7.4c-0.3,1.8-0.5,3.5-0.8,5.3C731.9,452.8,748.7,458.4,770.9,458z
					"/>
				<path fill="#A47469" d="M727.2,429.9c-0.1,1.1-0.3,2.3-0.4,3.4c10.7,0,32.2-0.2,44.6-1.9c0-1.4,0.1-2.8,0.1-4.2
					C760.9,427.9,739.2,429.4,727.2,429.9z"/>
				<path fill="#A47469" d="M742.1,235.4c-0.1,2.4-0.2,4.8-0.3,7.1c8.4,1.3,19.8,2.1,33.1,0.6c0-2.2,0.1-4.4,0.1-6.7L742.1,235.4z"
					/>
				<path fill="#A47469" d="M775.3,214.8c-8.7,0.6-21.8,1.5-32.5,2.1c-0.1,1.2-0.1,2.5-0.2,3.7c10.1-0.1,23.1-0.5,32.6-1.5
					C775.3,217.7,775.3,216.3,775.3,214.8z"/>
				<path fill="#A47469" d="M735.5,346.3c-0.2,2.6-0.4,5.3-0.6,7.9c8.3,2,24.9,5.5,37.9,5.5c0-2.3,0.1-4.7,0.1-7.1
					C764.2,351.2,745.8,348.2,735.5,346.3z"/>
				<path fill="#A47469" d="M738.1,309.4c-0.1,0.8-0.1,1.7-0.2,2.5c8.7,1.2,23,2.6,35.7,1.6c0-1,0-1.9,0.1-2.9
					C765,310.6,750,310.4,738.1,309.4z"/>
				<path fill="#A47469" d="M747.7,16.2c0,1,0,2,0,3c9.1,0.9,20.3,1.3,30.1,0.1c0-0.8,0-1.7,0-2.5C772.1,16.8,759.6,16.7,747.7,16.2
					z"/>
				<path fill="#A47469" d="M744.3,178.1c9.1,1,21,1.7,31.6,0.7c0-0.9,0-1.8,0-2.7c-6.8,0-19.8-0.2-31.5-0.8
					C744.4,176.2,744.3,177.2,744.3,178.1z"/>
				<path fill="#A47469" d="M738.8,298.2c-0.1,1-0.1,1.9-0.2,2.9c7.6,1.5,20.9,3.6,35.2,3.4c0-1,0-2,0.1-3
					C764.6,300.8,748.2,299.5,738.8,298.2z"/>
				<path fill="#A47469" d="M747.5,32.8c0,2.5-0.1,5-0.1,7.7c8.2,0.9,18.5,1.1,30.2-0.5c0-2.1,0-4.2,0-6.2L747.5,32.8z"/>
				<path fill="#A47469" d="M746,118.4c10.1-0.2,22.2-0.6,30.7-1.6c0-1.4,0-2.9,0.1-4.3c-7.8,0.5-20.1,1.4-30.7,2
					C746.1,115.8,746.1,117.1,746,118.4z"/>
				<path fill="#A47469" d="M746.4,99.7c8.2,1.3,19.2,2.4,30.5,2c0-0.9,0-1.8,0-2.6c-6.4-0.5-19.9-1.5-30.5-2.7
					C746.5,97.5,746.5,98.6,746.4,99.7z"/>
			</g>
			<path fill="#6C4449" d="M698.9,0c0,0,23.2,40.7,55,74.7l-7.4,14.7c0,0-41.4-38.5-55.4-89.4H698.9z"/>
		</g>
		<g>
			<g>
				<path fill="#6C4449" d="M124.1,0c0,0,0.5,399,33.1,572.7c0,0-32.3,18.4-60.4,7.2c0,0-8.8-420.7-8.8-579.8L124.1,0z"/>
				<g>
					<path fill="#A47469" d="M96.2,552.4c0-2.3-0.1-4.8-0.2-7.4l55.2-8.9c0.3,2.1,0.6,4.2,0.9,6.3C143.3,546.2,123,552.9,96.2,552.4
						z"/>
					<path fill="#A47469" d="M148.9,518.5c0.2,1.4,0.4,2.7,0.5,4.1c-12.9,0-38.8-0.3-53.9-2.2c0-1.7-0.1-3.4-0.1-5.1
						C108.3,516.1,134.4,517.9,148.9,518.5z"/>
					<path fill="#A47469" d="M131,283.9c0.1,2.9,0.3,5.7,0.4,8.6c-10.1,1.6-23.9,2.6-40,0.7c0-2.7-0.1-5.4-0.1-8L131,283.9z"/>
					<path fill="#A47469" d="M90.8,259.1c10.5,0.7,26.3,1.8,39.2,2.5c0.1,1.5,0.1,3,0.2,4.5c-12.2-0.1-27.9-0.6-39.3-1.8
						C90.9,262.6,90.9,260.8,90.8,259.1z"/>
					<path fill="#A47469" d="M138.9,417.7c0.2,3.2,0.5,6.3,0.7,9.5c-10,2.4-30,6.6-45.8,6.6c-0.1-2.8-0.1-5.7-0.2-8.5
						C104.3,423.6,126.5,419.9,138.9,417.7z"/>
					<path fill="#A47469" d="M135.8,373.2c0.1,1,0.1,2,0.2,3c-10.5,1.4-27.7,3.1-43.1,2c0-1.2,0-2.3-0.1-3.5
						C103.3,374.6,121.4,374.3,135.8,373.2z"/>
					<path fill="#A47469" d="M124.2,19.5c0,1.2,0,2.4,0,3.6c-11,1-24.5,1.6-36.3,0.2c0-1,0-2,0-3C94.8,20.3,109.8,20.2,124.2,19.5z"
						/>
					<path fill="#A47469" d="M128.3,214.8c-11,1.2-25.4,2.1-38.1,0.8c0-1.1,0-2.2,0-3.3c8.2,0,23.9-0.2,38-1
						C128.2,212.5,128.2,213.7,128.3,214.8z"/>
					<path fill="#A47469" d="M134.9,359.6c0.1,1.2,0.1,2.3,0.2,3.5c-9.2,1.8-25.2,4.4-42.5,4.2c0-1.2,0-2.4-0.1-3.6
						C103.8,362.9,123.5,361.3,134.9,359.6z"/>
					<path fill="#A47469" d="M124.4,39.6c0,3,0.1,6.1,0.1,9.3c-9.9,1.1-22.4,1.3-36.4-0.6c0-2.5,0-5-0.1-7.5L124.4,39.6z"/>
					<path fill="#A47469" d="M126.2,142.8c-12.2-0.2-26.8-0.7-37.1-1.9c0-1.7,0-3.5-0.1-5.2c9.4,0.7,24.2,1.7,37,2.4
						C126.1,139.7,126.2,141.2,126.2,142.8z"/>
					<path fill="#A47469" d="M125.7,120.3c-9.9,1.5-23.1,2.9-36.8,2.4c0-1.1,0-2.1,0-3.2c7.7-0.6,23.9-1.8,36.8-3.2
						C125.6,117.6,125.7,118.9,125.7,120.3z"/>
				</g>
				<path fill="#6C4449" d="M183.1,0c0,0-27.9,49.1-66.4,90.1l9,17.7c0,0,49.9-46.4,66.8-107.8L183.1,0z"/>
			</g>
			<path fill="#6C4449" d="M0,53.9c0,0,28.8,55.8,41.4,73.8s59.7,43.1,59.7,43.1V197c0,0-58-43.2-71-54.2C17.1,131.7,0,78.7,0,78.7
				V53.9z"/>
		</g>
	</g>
	<g>
		<g>
			<path fill="#FFFFFF" d="M179.1,106.2c9.7,0,9.7-15,0-15S169.4,106.2,179.1,106.2L179.1,106.2z"/>
		</g>
		<g>
			<path fill="#FFFFFF" d="M361.1,234.2c9.7,0,9.7-15,0-15C351.4,219.2,351.4,234.2,361.1,234.2L361.1,234.2z"/>
		</g>
		<g>
			<path fill="#FFFFFF" d="M575.1,66.2c9.7,0,9.7-15,0-15S565.4,66.2,575.1,66.2L575.1,66.2z"/>
		</g>
		<g>
			<path fill="#FFFFFF" d="M741.1,222.2c9.7,0,9.7-15,0-15S731.4,222.2,741.1,222.2L741.1,222.2z"/>
		</g>
		<g>
			<path fill="#FFFFFF" d="M825.1,100.2c9.7,0,9.7-15,0-15S815.4,100.2,825.1,100.2L825.1,100.2z"/>
		</g>
		<g>
			<path fill="#FFFFFF" d="M603.1,296.2c9.7,0,9.7-15,0-15S593.4,296.2,603.1,296.2L603.1,296.2z"/>
		</g>
		<g>
			<path fill="#FFFFFF" d="M27.1,298.2c9.7,0,9.7-15,0-15S17.4,298.2,27.1,298.2L27.1,298.2z"/>
		</g>
		<g>
			<path fill="#FFFFFF" d="M115.1,452.2c9.7,0,9.7-15,0-15S105.4,452.2,115.1,452.2L115.1,452.2z"/>
		</g>
		<g>
			<path fill="#FFFFFF" d="M423.1,520.2c9.7,0,9.7-15,0-15C413.4,505.2,413.4,520.2,423.1,520.2L423.1,520.2z"/>
		</g>
		<g>
			<path fill="#FFFFFF" d="M449.1,48.2c9.7,0,9.7-15,0-15C439.4,33.2,439.4,48.2,449.1,48.2L449.1,48.2z"/>
		</g>
		<g>
			<path fill="#FFFFFF" d="M311.1,118.2c9.7,0,9.7-15,0-15C301.4,103.2,301.4,118.2,311.1,118.2L311.1,118.2z"/>
		</g>
		<g>
			<path fill="#FFFFFF" d="M741.1,362.2c9.7,0,9.7-15,0-15S731.4,362.2,741.1,362.2L741.1,362.2z"/>
		</g>
		<g>
			<path fill="#FFFFFF" d="M595.1,480.2c9.7,0,9.7-15,0-15S585.4,480.2,595.1,480.2L595.1,480.2z"/>
		</g>
		<g>
			<path fill="#FFFFFF" d="M785.1,546.2c9.7,0,9.7-15,0-15S775.4,546.2,785.1,546.2L785.1,546.2z"/>
		</g>
		<g>
			<path fill="#FFFFFF" d="M47.1,548.2c9.7,0,9.7-15,0-15S37.4,548.2,47.1,548.2L47.1,548.2z"/>
		</g>
		<g>
			<path fill="#FFFFFF" d="M251.1,436.2c9.7,0,9.7-15,0-15S241.4,436.2,251.1,436.2L251.1,436.2z"/>
		</g>
		<g>
			<path fill="#FFFFFF" d="M207.1,246.2c9.7,0,9.7-15,0-15S197.4,246.2,207.1,246.2L207.1,246.2z"/>
		</g>
		<g>
			<path fill="#FFFFFF" d="M31.1,34.2c9.7,0,9.7-15,0-15S21.4,34.2,31.1,34.2L31.1,34.2z"/>
		</g>
		<g>
			<path fill="#FFFFFF" d="M765.1,40.2c9.7,0,9.7-15,0-15S755.4,40.2,765.1,40.2L765.1,40.2z"/>
		</g>
		<g>
			<path fill="#FFFFFF" d="M673.1,136.2c9.7,0,9.7-15,0-15S663.4,136.2,673.1,136.2L673.1,136.2z"/>
		</g>
	</g>
</g>
</svg>
